# xmcd
#
# Track frame offsets:
# 150
# 23272
# 44813
# 67279
# 84150
# 112029
# 132010
# 165334
# 187659
# 214153
#
# Disc length: 3130 seconds
#
# Revision: 1
# Processed by: cddbd v1.5.2PL0 Copyright (c) Steve Scherf et al.
# Submitted via: CedeCatalogueitor 2.6.0.6 http://personales.ya.com/cdcatalogueitor
#
DISCID=7d0c380a
DTITLE=Pumuky - De Viaje Al País De Las Tormentas
DYEAR=1900
DGENRE=
TTITLE0=Vértigo Ante La Posibilidad Inminente De Ser Feliz
TTITLE1=La Hoguera Más Grande Del Mundo
TTITLE2=Dummies In Love
TTITLE3=Demasiadas R.p.m
TTITLE4=Pequeño
TTITLE5=Morir Soñando Nuevamente
TTITLE6=Noviembre, El Eterno Retorno
TTITLE7=Réquiem Por El Chico Cangrejo
TTITLE8=De Viaje Al País De Las Tormentas
TTITLE9=último Ensayo En El Sótano
EXTD=
EXTT0=
EXTT1=
EXTT2=
EXTT3=
EXTT4=
EXTT5=
EXTT6=
EXTT7=
EXTT8=
EXTT9=
PLAYORDER=
